<svg width="1858" height="420" viewBox="0 0 1858 420" fill="none" xmlns="http://www.w3.org/2000/svg">
<path d="M549.195 173.533C550.94 173.533 551.813 178.102 551.813 187.239C551.813 196.274 550.94 200.791 549.195 200.791H521.013V218.347H539.801C541.546 218.347 542.419 222.351 542.419 230.359C542.419 238.265 541.598 242.217 539.955 242.217H521.013V279.331C521.013 280.769 519.062 281.693 515.161 282.103C511.362 282.617 508.18 282.873 505.613 282.873L498.375 282.565C493.344 281.949 490.829 280.923 490.829 279.485V177.537C490.829 175.895 491.137 174.817 491.753 174.303C492.472 173.79 493.498 173.533 494.833 173.533H549.195ZM610.223 281.179C610.223 281.898 605.552 282.257 596.209 282.257C586.867 282.052 582.195 281.641 582.195 281.025V229.897H578.037C576.395 229.897 575.06 228.922 574.033 226.971C573.109 224.918 572.647 222.403 572.647 219.425C572.647 208.337 575.933 202.793 582.503 202.793C587.123 202.793 590.973 204.231 594.053 207.105C597.133 209.877 598.673 213.06 598.673 216.653C600.829 212.444 603.704 209.107 607.297 206.643C610.993 204.077 614.741 202.793 618.539 202.793C624.494 202.793 628.087 204.333 629.319 207.413C629.627 208.235 629.781 209.467 629.781 211.109C629.781 212.649 629.268 215.473 628.241 219.579C627.317 223.686 626.342 226.663 625.315 228.511C624.289 230.359 623.673 231.283 623.467 231.283C623.262 231.283 622.287 230.924 620.541 230.205C618.899 229.384 617.41 228.973 616.075 228.973C612.174 228.973 610.223 232.053 610.223 238.213V281.179ZM712.708 277.175C706.24 280.974 697.924 282.873 687.76 282.873C677.596 282.873 669.023 279.434 662.042 272.555C655.061 265.574 651.57 255.975 651.57 243.757C651.57 231.437 654.907 221.53 661.58 214.035C668.356 206.541 676.877 202.793 687.144 202.793C697.411 202.793 705.316 205.411 710.86 210.647C716.507 215.883 719.33 222.249 719.33 229.743C719.33 246.375 709.782 254.691 690.686 254.691H680.06C680.06 257.771 680.881 259.927 682.524 261.159C684.269 262.289 686.785 262.853 690.07 262.853C697.257 262.853 704.084 261.211 710.552 257.925C710.655 257.823 711.117 258.541 711.938 260.081C714.402 264.496 715.634 268.243 715.634 271.323C715.634 274.301 714.659 276.251 712.708 277.175ZM693.458 232.669C693.458 228.357 691.353 226.201 687.144 226.201C685.193 226.201 683.499 226.817 682.062 228.049C680.727 229.179 680.06 230.873 680.06 233.131V237.905H688.376C691.764 237.905 693.458 236.16 693.458 232.669ZM804.543 277.175C798.075 280.974 789.759 282.873 779.595 282.873C769.431 282.873 760.858 279.434 753.877 272.555C746.895 265.574 743.405 255.975 743.405 243.757C743.405 231.437 746.741 221.53 753.415 214.035C760.191 206.541 768.712 202.793 778.979 202.793C789.245 202.793 797.151 205.411 802.695 210.647C808.341 215.883 811.165 222.249 811.165 229.743C811.165 246.375 801.617 254.691 782.521 254.691H771.895C771.895 257.771 772.716 259.927 774.359 261.159C776.104 262.289 778.619 262.853 781.905 262.853C789.091 262.853 795.919 261.211 802.387 257.925C802.489 257.823 802.951 258.541 803.773 260.081C806.237 264.496 807.469 268.243 807.469 271.323C807.469 274.301 806.493 276.251 804.543 277.175ZM785.293 232.669C785.293 228.357 783.188 226.201 778.979 226.201C777.028 226.201 775.334 226.817 773.897 228.049C772.562 229.179 771.895 230.873 771.895 233.131V237.905H780.211C783.599 237.905 785.293 236.16 785.293 232.669ZM888.905 243.757C890.855 245.297 894.192 247.402 898.915 250.071C903.74 252.741 908.309 254.075 912.621 254.075C917.035 254.075 919.243 252.381 919.243 248.993C919.243 247.453 918.627 246.119 917.395 244.989C916.163 243.757 913.904 242.371 910.619 240.831C907.333 239.291 904.869 238.111 903.227 237.289C901.584 236.365 899.377 234.928 896.605 232.977C893.935 230.924 891.882 228.819 890.445 226.663C886.338 220.811 884.285 213.368 884.285 204.333C884.285 195.299 887.621 187.701 894.295 181.541C901.071 175.279 909.9 172.147 920.783 172.147C928.175 172.147 935.002 172.969 941.265 174.611C947.527 176.151 950.761 178.205 950.967 180.771C950.967 181.079 950.967 181.387 950.967 181.695C950.967 185.289 949.837 189.857 947.579 195.401C945.32 200.843 943.729 203.871 942.805 204.487C936.234 201.099 930.331 199.405 925.095 199.405C919.961 199.405 917.395 201.253 917.395 204.949C917.395 207.208 919.294 209.21 923.093 210.955C923.914 211.366 925.095 211.931 926.635 212.649C928.175 213.368 929.92 214.241 931.871 215.267C933.924 216.191 936.08 217.423 938.339 218.963C940.7 220.401 943.215 222.351 945.885 224.815C951.326 229.949 954.047 236.725 954.047 245.143C954.047 256.129 951.018 265.112 944.961 272.093C938.903 279.075 929.561 282.668 916.933 282.873C910.773 282.873 905.177 282.36 900.147 281.333C895.219 280.307 890.907 278.305 887.211 275.327C883.515 272.35 881.667 268.757 881.667 264.547C881.667 260.338 882.437 256.18 883.977 252.073C885.517 247.864 887.159 245.092 888.905 243.757ZM1015.99 309.361C1015.99 310.08 1011.58 310.439 1002.75 310.439C994.022 310.439 989.659 310.08 989.659 309.361V230.051H984.423C981.959 230.051 980.265 227.793 979.341 223.275C979.033 221.838 978.879 219.99 978.879 217.731C978.879 215.473 979.598 212.803 981.035 209.723C983.088 205.206 986.374 202.947 990.891 202.947C993.868 202.947 996.589 203.666 999.053 205.103C1001.62 206.438 1003.37 207.721 1004.29 208.953C1005.32 210.083 1005.83 210.75 1005.83 210.955C1012.71 205.617 1020.15 202.947 1028.16 202.947C1036.17 202.947 1043.05 206.079 1048.8 212.341C1054.54 218.501 1057.42 228.101 1057.42 241.139C1057.42 254.075 1054.54 264.137 1048.8 271.323C1043.05 278.407 1035.76 281.949 1026.93 281.949C1022.92 281.949 1019.28 281.744 1015.99 281.333V309.361ZM1022.31 229.897C1020.56 229.897 1018.87 230.462 1017.23 231.591V258.849C1018.97 259.055 1020.36 259.157 1021.38 259.157C1022.51 259.157 1023.39 259.157 1024 259.157C1028.21 258.747 1030.32 253.357 1030.32 242.987C1030.32 234.261 1027.65 229.897 1022.31 229.897ZM1113.43 280.409C1113.43 281.231 1108.7 281.641 1099.26 281.641C1089.92 281.641 1085.24 281.282 1085.24 280.563V204.949C1085.24 204.231 1089.92 203.871 1099.26 203.871C1108.7 203.871 1113.43 204.179 1113.43 204.795V280.409ZM1113.43 195.709C1113.43 196.428 1108.7 196.787 1099.26 196.787C1089.92 196.787 1085.24 196.479 1085.24 195.863V173.687C1085.24 172.661 1089.92 172.147 1099.26 172.147C1108.7 172.147 1113.43 172.455 1113.43 173.071V195.709ZM1178.02 281.179C1178.02 281.898 1173.35 282.257 1164.01 282.257C1154.66 282.052 1149.99 281.641 1149.99 281.025V229.897H1145.83C1144.19 229.897 1142.86 228.922 1141.83 226.971C1140.91 224.918 1140.44 222.403 1140.44 219.425C1140.44 208.337 1143.73 202.793 1150.3 202.793C1154.92 202.793 1158.77 204.231 1161.85 207.105C1164.93 209.877 1166.47 213.06 1166.47 216.653C1168.63 212.444 1171.5 209.107 1175.09 206.643C1178.79 204.077 1182.54 202.793 1186.34 202.793C1192.29 202.793 1195.88 204.333 1197.12 207.413C1197.42 208.235 1197.58 209.467 1197.58 211.109C1197.58 212.649 1197.06 215.473 1196.04 219.579C1195.11 223.686 1194.14 226.663 1193.11 228.511C1192.09 230.359 1191.47 231.283 1191.26 231.283C1191.06 231.283 1190.08 230.924 1188.34 230.205C1186.7 229.384 1185.21 228.973 1183.87 228.973C1179.97 228.973 1178.02 232.053 1178.02 238.213V281.179ZM1250.47 280.409C1250.47 281.231 1245.75 281.641 1236.31 281.641C1226.96 281.641 1222.29 281.282 1222.29 280.563V204.949C1222.29 204.231 1226.96 203.871 1236.31 203.871C1245.75 203.871 1250.47 204.179 1250.47 204.795V280.409ZM1250.47 195.709C1250.47 196.428 1245.75 196.787 1236.31 196.787C1226.96 196.787 1222.29 196.479 1222.29 195.863V173.687C1222.29 172.661 1226.96 172.147 1236.31 172.147C1245.75 172.147 1250.47 172.455 1250.47 173.071V195.709ZM1316.76 280.409C1316.76 281.641 1312.45 282.257 1303.83 282.257C1293.56 281.847 1288.43 281.179 1288.43 280.255V225.739H1280.57C1278.52 225.739 1277.49 222.197 1277.49 215.113C1277.49 213.265 1277.65 211.007 1277.95 208.337C1278.36 205.668 1279.13 204.333 1280.26 204.333H1288.43V190.781C1288.43 188.728 1292.74 187.701 1301.36 187.701C1310.09 187.701 1314.45 188.523 1314.45 190.165V200.021L1314.61 204.333H1327.7C1329.44 204.333 1330.31 207.927 1330.31 215.113C1330.31 222.3 1329.44 225.893 1327.7 225.893H1316.76V280.409ZM1448.07 278.869C1448.07 280.923 1442.99 281.949 1432.82 281.949C1422.66 281.949 1417.58 280.923 1417.58 278.869V201.561H1399.1C1397.35 201.561 1396.12 199.2 1395.4 194.477C1395.09 192.219 1394.94 189.909 1394.94 187.547C1394.94 185.186 1395.09 182.876 1395.4 180.617C1396.12 175.895 1397.35 173.533 1399.1 173.533H1466.09C1467.83 173.533 1469.06 175.895 1469.78 180.617C1470.09 182.876 1470.24 185.186 1470.24 187.547C1470.24 189.909 1470.09 192.219 1469.78 194.477C1469.06 199.2 1467.83 201.561 1466.09 201.561H1448.07V278.869ZM1496.39 272.247C1490.03 265.163 1486.85 255.359 1486.85 242.833C1486.85 230.308 1490.03 220.503 1496.39 213.419C1502.86 206.335 1511.54 202.793 1522.42 202.793C1533.3 202.793 1541.93 206.335 1548.29 213.419C1554.66 220.503 1557.84 230.308 1557.84 242.833C1557.84 255.359 1554.66 265.163 1548.29 272.247C1541.93 279.331 1533.3 282.873 1522.42 282.873C1511.54 282.873 1502.86 279.331 1496.39 272.247ZM1522.42 228.511C1516.67 228.511 1513.8 233.234 1513.8 242.679C1513.8 252.125 1516.67 256.847 1522.42 256.847C1528.27 256.847 1531.2 252.125 1531.2 242.679C1531.2 233.234 1528.27 228.511 1522.42 228.511ZM1584.9 205.257C1584.9 204.128 1589.31 203.563 1598.14 203.563C1606.97 203.563 1611.38 204.128 1611.38 205.257V250.225C1611.38 255.359 1613.03 257.925 1616.31 257.925C1618.78 257.925 1621.55 256.847 1624.63 254.691V205.257C1624.63 204.231 1628.99 203.717 1637.72 203.717C1646.45 203.717 1650.81 204.231 1650.81 205.257V255.769H1654.81C1658.3 255.769 1660.05 259.106 1660.05 265.779C1660.05 269.167 1659.33 272.607 1657.89 276.097C1655.84 280.615 1653.07 282.873 1649.58 282.873C1642.7 282.873 1637.62 280.05 1634.33 274.403L1634.18 274.557C1627.91 280.101 1621.19 282.873 1614 282.873C1604.04 282.873 1596.7 280.409 1591.98 275.481C1587.26 270.451 1584.9 262.186 1584.9 250.687V205.257ZM1720.1 281.179C1720.1 281.898 1715.43 282.257 1706.09 282.257C1696.74 282.052 1692.07 281.641 1692.07 281.025V229.897H1687.91C1686.27 229.897 1684.94 228.922 1683.91 226.971C1682.99 224.918 1682.52 222.403 1682.52 219.425C1682.52 208.337 1685.81 202.793 1692.38 202.793C1697 202.793 1700.85 204.231 1703.93 207.105C1707.01 209.877 1708.55 213.06 1708.55 216.653C1710.71 212.444 1713.58 209.107 1717.17 206.643C1720.87 204.077 1724.62 202.793 1728.42 202.793C1734.37 202.793 1737.96 204.333 1739.2 207.413C1739.5 208.235 1739.66 209.467 1739.66 211.109C1739.66 212.649 1739.14 215.473 1738.12 219.579C1737.19 223.686 1736.22 226.663 1735.19 228.511C1734.17 230.359 1733.55 231.283 1733.34 231.283C1733.14 231.283 1732.16 230.924 1730.42 230.205C1728.78 229.384 1727.29 228.973 1725.95 228.973C1722.05 228.973 1720.1 232.053 1720.1 238.213V281.179ZM1767.61 253.613C1775.92 258.644 1782.49 261.159 1787.32 261.159C1790.4 261.159 1791.94 260.081 1791.94 257.925C1791.94 256.385 1789.27 254.383 1783.93 251.919C1771.1 246.683 1764.68 238.111 1764.68 226.201C1764.68 218.604 1767.45 212.803 1773 208.799C1778.54 204.795 1785.16 202.793 1792.86 202.793C1800.67 202.793 1807.24 203.615 1812.57 205.257C1818.02 206.9 1820.74 209.056 1820.74 211.725C1820.74 213.984 1819.61 216.961 1817.35 220.657C1815.19 224.353 1813.7 226.355 1812.88 226.663C1808.47 224.199 1803.69 222.967 1798.56 222.967C1795.79 222.967 1794.4 223.943 1794.4 225.893C1794.4 227.125 1794.92 228.203 1795.94 229.127C1797.07 229.949 1799.07 231.027 1801.95 232.361C1804.82 233.593 1807.18 234.723 1809.03 235.749C1810.98 236.776 1813.14 238.213 1815.5 240.061C1820.43 243.963 1822.89 249.045 1822.89 255.307C1822.89 263.521 1820.17 270.194 1814.73 275.327C1809.29 280.358 1801.08 282.873 1790.09 282.873C1782.8 282.873 1776.18 281.641 1770.22 279.177C1764.27 276.713 1761.29 273.325 1761.29 269.013C1761.29 266.139 1761.96 263.11 1763.29 259.927C1764.73 256.745 1766.17 254.64 1767.61 253.613Z" fill="#BB2649"/>
<path d="M61.9298 203.035L35.2631 166.544L61.9298 368.649H133.509L199.474 313.1M373.509 166.544L199.474 313.1M199.474 313.1L112.456 247.947M199.474 368.649H181.93L391.053 189L373.509 368.649H345.439" stroke="#BB2649" stroke-width="12" stroke-linecap="round" stroke-linejoin="round"/>
<path d="M219.825 109L150.118 222.444C149.299 223.777 150.258 225.491 151.822 225.491H259.983C261.845 225.491 262.697 227.814 261.275 229.017L196.667 283.737" stroke="#BB2649" stroke-width="12" stroke-linecap="round" stroke-linejoin="round"/>
<circle cx="29.6491" cy="109" r="19.6491" fill="#BB2649"/>
<circle cx="390.351" cy="109" r="19.6491" fill="#BB2649"/>
<circle cx="213.509" cy="48.6491" r="19.6491" fill="#BB2649"/>
</svg>
