<?xml version="1.0" ?><svg viewBox="0 0 512 512" xmlns="http://www.w3.org/2000/svg"><defs><style>.d{fill:#040000;}.e{fill:none;stroke:#000;stroke-linecap:round;stroke-linejoin:round;stroke-width:14px;}</style></defs><g id="a"/><g id="b"><g><path class="e" d="M80.122,357.06l18.105-53.51c-13.769-19.663-21.695-42.729-21.695-67.395,0-71.949,67.433-130.276,150.616-130.276s150.616,58.326,150.616,130.276-67.433,130.276-150.616,130.276c-34.913,0-67.051-10.274-92.594-27.518l-54.433,18.147Z"/><path class="e" d="M248.043,365.18c17.994,24.603,49.731,40.94,85.879,40.94,23.538,0,45.206-6.927,62.427-18.553l36.699,12.235-12.206-36.076c9.283-13.257,14.627-28.808,14.627-45.438,0-34.941-23.589-65.117-57.744-79.264"/><path class="d" d="M228.816,248.17c6.628,0,12.003-5.368,12.003-11.996s-5.375-11.99-12.003-11.99-11.989,5.361-11.989,11.99,5.367,11.996,11.989,11.996Z"/><path class="d" d="M164.091,248.17c6.628,0,12.003-5.368,12.003-11.996s-5.375-11.99-12.003-11.99-11.989,5.361-11.989,11.99,5.367,11.996,11.989,11.996Z"/><path class="d" d="M293.542,248.17c6.628,0,12.003-5.368,12.003-11.996s-5.375-11.99-12.003-11.99-11.989,5.361-11.989,11.99,5.367,11.996,11.989,11.996Z"/></g></g><g id="c"/></svg>