<?xml version="1.0" ?><svg viewBox="0 0 512 512" xmlns="http://www.w3.org/2000/svg"><defs><style>.d{fill:none;stroke:#000;stroke-linecap:round;stroke-linejoin:round;stroke-width:14px;}</style></defs><g id="a"/><g id="b"><g><rect class="d" height="140.675" width="61.775" x="117.361" y="221.191"/><path class="d" d="M179.135,221.191l118.577-99.075c8.319-10.43,23.74-11.859,33.849-2.891,9.479,8.409,9.814,23.205,1.913,33.111l-43.984,59.15h80.423c12.671,0,24.03,9.488,24.693,22.142,.707,13.495-10.026,24.66-23.368,24.66,12.924,0,23.401,10.477,23.401,23.401s-10.477,23.401-23.401,23.401c12.924,0,23.401,10.477,23.401,23.401s-10.477,23.401-23.401,23.401c12.924,0,23.401,10.477,23.401,23.4h0c0,12.924-10.477,23.401-23.4,23.401h-99.936c-25.223,0-49.864-7.574-70.733-21.74l-17.095-11.605"/><line class="d" x1="371.238" x2="341.371" y1="258.288" y2="258.288"/><line class="d" x1="371.238" x2="341.371" y1="305.738" y2="305.738"/><line class="d" x1="371.238" x2="341.371" y1="351.892" y2="351.892"/></g></g><g id="c"/></svg>