<svg width="779" height="420" viewBox="0 0 779 420" fill="none" xmlns="http://www.w3.org/2000/svg">
<path d="M510.059 53.3333C511.193 53.3333 511.759 56.3 511.759 62.2333C511.759 68.1 511.193 71.0333 510.059 71.0333H491.759V82.4333H503.959C505.093 82.4333 505.659 85.0333 505.659 90.2333C505.659 95.3667 505.126 97.9333 504.059 97.9333H491.759V122.033C491.759 122.967 490.493 123.567 487.959 123.833C485.493 124.167 483.426 124.333 481.759 124.333L477.059 124.133C473.793 123.733 472.159 123.067 472.159 122.133V55.9333C472.159 54.8667 472.359 54.1667 472.759 53.8333C473.226 53.5 473.893 53.3333 474.759 53.3333H510.059ZM549.688 123.233C549.688 123.7 546.655 123.933 540.588 123.933C534.521 123.8 531.488 123.533 531.488 123.133V89.9333H528.788C527.721 89.9333 526.855 89.3 526.188 88.0333C525.588 86.7 525.288 85.0667 525.288 83.1333C525.288 75.9333 527.421 72.3333 531.688 72.3333C534.688 72.3333 537.188 73.2667 539.188 75.1333C541.188 76.9333 542.188 79 542.188 81.3333C543.588 78.6 545.455 76.4333 547.788 74.8333C550.188 73.1667 552.621 72.3333 555.088 72.3333C558.955 72.3333 561.288 73.3333 562.088 75.3333C562.288 75.8667 562.388 76.6667 562.388 77.7333C562.388 78.7333 562.055 80.5667 561.388 83.2333C560.788 85.9 560.155 87.8333 559.488 89.0333C558.821 90.2333 558.421 90.8333 558.288 90.8333C558.155 90.8333 557.521 90.6 556.388 90.1333C555.321 89.6 554.355 89.3333 553.488 89.3333C550.955 89.3333 549.688 91.3333 549.688 95.3333V123.233ZM616.237 120.633C612.037 123.1 606.637 124.333 600.037 124.333C593.437 124.333 587.87 122.1 583.337 117.633C578.803 113.1 576.537 106.867 576.537 98.9333C576.537 90.9333 578.703 84.5 583.037 79.6333C587.437 74.7667 592.97 72.3333 599.637 72.3333C606.303 72.3333 611.437 74.0333 615.037 77.4333C618.703 80.8333 620.537 84.9667 620.537 89.8333C620.537 100.633 614.337 106.033 601.937 106.033H595.037C595.037 108.033 595.57 109.433 596.637 110.233C597.77 110.967 599.403 111.333 601.537 111.333C606.203 111.333 610.637 110.267 614.837 108.133C614.903 108.067 615.203 108.533 615.737 109.533C617.337 112.4 618.137 114.833 618.137 116.833C618.137 118.767 617.503 120.033 616.237 120.633ZM603.737 91.7333C603.737 88.9333 602.37 87.5333 599.637 87.5333C598.37 87.5333 597.27 87.9333 596.337 88.7333C595.47 89.4667 595.037 90.5667 595.037 92.0333V95.1333H600.437C602.637 95.1333 603.737 94 603.737 91.7333ZM675.869 120.633C671.669 123.1 666.269 124.333 659.669 124.333C653.069 124.333 647.503 122.1 642.969 117.633C638.436 113.1 636.169 106.867 636.169 98.9333C636.169 90.9333 638.336 84.5 642.669 79.6333C647.069 74.7667 652.603 72.3333 659.269 72.3333C665.936 72.3333 671.069 74.0333 674.669 77.4333C678.336 80.8333 680.169 84.9667 680.169 89.8333C680.169 100.633 673.969 106.033 661.569 106.033H654.669C654.669 108.033 655.203 109.433 656.269 110.233C657.403 110.967 659.036 111.333 661.169 111.333C665.836 111.333 670.269 110.267 674.469 108.133C674.536 108.067 674.836 108.533 675.369 109.533C676.969 112.4 677.769 114.833 677.769 116.833C677.769 118.767 677.136 120.033 675.869 120.633ZM663.369 91.7333C663.369 88.9333 662.003 87.5333 659.269 87.5333C658.003 87.5333 656.903 87.9333 655.969 88.7333C655.103 89.4667 654.669 90.5667 654.669 92.0333V95.1333H660.069C662.269 95.1333 663.369 94 663.369 91.7333ZM475.259 212.933C476.526 213.933 478.693 215.3 481.759 217.033C484.893 218.767 487.859 219.633 490.659 219.633C493.526 219.633 494.959 218.533 494.959 216.333C494.959 215.333 494.559 214.467 493.759 213.733C492.959 212.933 491.493 212.033 489.359 211.033C487.226 210.033 485.626 209.267 484.559 208.733C483.493 208.133 482.059 207.2 480.259 205.933C478.526 204.6 477.193 203.233 476.259 201.833C473.593 198.033 472.259 193.2 472.259 187.333C472.259 181.467 474.426 176.533 478.759 172.533C483.159 168.467 488.893 166.433 495.959 166.433C500.759 166.433 505.193 166.967 509.259 168.033C513.326 169.033 515.426 170.367 515.559 172.033C515.559 172.233 515.559 172.433 515.559 172.633C515.559 174.967 514.826 177.933 513.359 181.533C511.893 185.067 510.859 187.033 510.259 187.433C505.993 185.233 502.159 184.133 498.759 184.133C495.426 184.133 493.759 185.333 493.759 187.733C493.759 189.2 494.993 190.5 497.459 191.633C497.993 191.9 498.759 192.267 499.759 192.733C500.759 193.2 501.893 193.767 503.159 194.433C504.493 195.033 505.893 195.833 507.359 196.833C508.893 197.767 510.526 199.033 512.259 200.633C515.793 203.967 517.559 208.367 517.559 213.833C517.559 220.967 515.593 226.8 511.659 231.333C507.726 235.867 501.659 238.2 493.459 238.333C489.459 238.333 485.826 238 482.559 237.333C479.359 236.667 476.559 235.367 474.159 233.433C471.759 231.5 470.559 229.167 470.559 226.433C470.559 223.7 471.059 221 472.059 218.333C473.059 215.6 474.126 213.8 475.259 212.933ZM557.784 255.533C557.784 256 554.918 256.233 549.184 256.233C543.518 256.233 540.684 256 540.684 255.533V204.033H537.284C535.684 204.033 534.584 202.567 533.984 199.633C533.784 198.7 533.684 197.5 533.684 196.033C533.684 194.567 534.151 192.833 535.084 190.833C536.418 187.9 538.551 186.433 541.484 186.433C543.418 186.433 545.184 186.9 546.784 187.833C548.451 188.7 549.584 189.533 550.184 190.333C550.851 191.067 551.184 191.5 551.184 191.633C555.651 188.167 560.484 186.433 565.684 186.433C570.884 186.433 575.351 188.467 579.084 192.533C582.818 196.533 584.684 202.767 584.684 211.233C584.684 219.633 582.818 226.167 579.084 230.833C575.351 235.433 570.618 237.733 564.884 237.733C562.284 237.733 559.918 237.6 557.784 237.333V255.533ZM561.884 203.933C560.751 203.933 559.651 204.3 558.584 205.033V222.733C559.718 222.867 560.618 222.933 561.284 222.933C562.018 222.933 562.584 222.933 562.984 222.933C565.718 222.667 567.084 219.167 567.084 212.433C567.084 206.767 565.351 203.933 561.884 203.933ZM621.053 236.733C621.053 237.267 617.986 237.533 611.853 237.533C605.786 237.533 602.753 237.3 602.753 236.833V187.733C602.753 187.267 605.786 187.033 611.853 187.033C617.986 187.033 621.053 187.233 621.053 187.633V236.733ZM621.053 181.733C621.053 182.2 617.986 182.433 611.853 182.433C605.786 182.433 602.753 182.233 602.753 181.833V167.433C602.753 166.767 605.786 166.433 611.853 166.433C617.986 166.433 621.053 166.633 621.053 167.033V181.733ZM662.997 237.233C662.997 237.7 659.963 237.933 653.897 237.933C647.83 237.8 644.797 237.533 644.797 237.133V203.933H642.097C641.03 203.933 640.163 203.3 639.497 202.033C638.897 200.7 638.597 199.067 638.597 197.133C638.597 189.933 640.73 186.333 644.997 186.333C647.997 186.333 650.497 187.267 652.497 189.133C654.497 190.933 655.497 193 655.497 195.333C656.897 192.6 658.763 190.433 661.097 188.833C663.497 187.167 665.93 186.333 668.397 186.333C672.263 186.333 674.597 187.333 675.397 189.333C675.597 189.867 675.697 190.667 675.697 191.733C675.697 192.733 675.363 194.567 674.697 197.233C674.097 199.9 673.463 201.833 672.797 203.033C672.13 204.233 671.73 204.833 671.597 204.833C671.463 204.833 670.83 204.6 669.697 204.133C668.63 203.6 667.663 203.333 666.797 203.333C664.263 203.333 662.997 205.333 662.997 209.333V237.233ZM710.045 236.733C710.045 237.267 706.978 237.533 700.845 237.533C694.778 237.533 691.745 237.3 691.745 236.833V187.733C691.745 187.267 694.778 187.033 700.845 187.033C706.978 187.033 710.045 187.233 710.045 187.633V236.733ZM710.045 181.733C710.045 182.2 706.978 182.433 700.845 182.433C694.778 182.433 691.745 182.233 691.745 181.833V167.433C691.745 166.767 694.778 166.433 700.845 166.433C706.978 166.433 710.045 166.633 710.045 167.033V181.733ZM753.089 236.733C753.089 237.533 750.289 237.933 744.689 237.933C738.022 237.667 734.689 237.233 734.689 236.633V201.233H729.589C728.256 201.233 727.589 198.933 727.589 194.333C727.589 193.133 727.689 191.667 727.889 189.933C728.156 188.2 728.656 187.333 729.389 187.333H734.689V178.533C734.689 177.2 737.489 176.533 743.089 176.533C748.756 176.533 751.589 177.067 751.589 178.133V184.533L751.689 187.333H760.189C761.322 187.333 761.889 189.667 761.889 194.333C761.889 199 761.322 201.333 760.189 201.333H753.089V236.733ZM502.759 349.733C502.759 351.067 499.459 351.733 492.859 351.733C486.259 351.733 482.959 351.067 482.959 349.733V299.533H470.959C469.826 299.533 469.026 298 468.559 294.933C468.359 293.467 468.259 291.967 468.259 290.433C468.259 288.9 468.359 287.4 468.559 285.933C469.026 282.867 469.826 281.333 470.959 281.333H514.459C515.593 281.333 516.393 282.867 516.859 285.933C517.059 287.4 517.159 288.9 517.159 290.433C517.159 291.967 517.059 293.467 516.859 294.933C516.393 298 515.593 299.533 514.459 299.533H502.759V349.733ZM534.139 345.433C530.006 340.833 527.939 334.467 527.939 326.333C527.939 318.2 530.006 311.833 534.139 307.233C538.339 302.633 543.972 300.333 551.039 300.333C558.106 300.333 563.706 302.633 567.839 307.233C571.972 311.833 574.039 318.2 574.039 326.333C574.039 334.467 571.972 340.833 567.839 345.433C563.706 350.033 558.106 352.333 551.039 352.333C543.972 352.333 538.339 350.033 534.139 345.433ZM551.039 317.033C547.306 317.033 545.439 320.1 545.439 326.233C545.439 332.367 547.306 335.433 551.039 335.433C554.839 335.433 556.739 332.367 556.739 326.233C556.739 320.1 554.839 317.033 551.039 317.033ZM591.608 301.933C591.608 301.2 594.475 300.833 600.208 300.833C605.942 300.833 608.808 301.2 608.808 301.933V331.133C608.808 334.467 609.875 336.133 612.008 336.133C613.608 336.133 615.408 335.433 617.408 334.033V301.933C617.408 301.267 620.242 300.933 625.908 300.933C631.575 300.933 634.408 301.267 634.408 301.933V334.733H637.008C639.275 334.733 640.408 336.9 640.408 341.233C640.408 343.433 639.942 345.667 639.008 347.933C637.675 350.867 635.875 352.333 633.608 352.333C629.142 352.333 625.842 350.5 623.708 346.833L623.608 346.933C619.542 350.533 615.175 352.333 610.508 352.333C604.042 352.333 599.275 350.733 596.208 347.533C593.142 344.267 591.608 338.9 591.608 331.433V301.933ZM679.403 351.233C679.403 351.7 676.37 351.933 670.303 351.933C664.236 351.8 661.203 351.533 661.203 351.133V317.933H658.503C657.436 317.933 656.57 317.3 655.903 316.033C655.303 314.7 655.003 313.067 655.003 311.133C655.003 303.933 657.136 300.333 661.403 300.333C664.403 300.333 666.903 301.267 668.903 303.133C670.903 304.933 671.903 307 671.903 309.333C673.303 306.6 675.17 304.433 677.503 302.833C679.903 301.167 682.336 300.333 684.803 300.333C688.67 300.333 691.003 301.333 691.803 303.333C692.003 303.867 692.103 304.667 692.103 305.733C692.103 306.733 691.77 308.567 691.103 311.233C690.503 313.9 689.87 315.833 689.203 317.033C688.536 318.233 688.136 318.833 688.003 318.833C687.87 318.833 687.236 318.6 686.103 318.133C685.036 317.6 684.07 317.333 683.203 317.333C680.67 317.333 679.403 319.333 679.403 323.333V351.233ZM710.251 333.333C715.651 336.6 719.918 338.233 723.051 338.233C725.051 338.233 726.051 337.533 726.051 336.133C726.051 335.133 724.318 333.833 720.851 332.233C712.518 328.833 708.351 323.267 708.351 315.533C708.351 310.6 710.151 306.833 713.751 304.233C717.351 301.633 721.651 300.333 726.651 300.333C731.718 300.333 735.985 300.867 739.451 301.933C742.985 303 744.751 304.4 744.751 306.133C744.751 307.6 744.018 309.533 742.551 311.933C741.151 314.333 740.185 315.633 739.651 315.833C736.785 314.233 733.685 313.433 730.351 313.433C728.551 313.433 727.651 314.067 727.651 315.333C727.651 316.133 727.985 316.833 728.651 317.433C729.385 317.967 730.685 318.667 732.551 319.533C734.418 320.333 735.951 321.067 737.151 321.733C738.418 322.4 739.818 323.333 741.351 324.533C744.551 327.067 746.151 330.367 746.151 334.433C746.151 339.767 744.385 344.1 740.851 347.433C737.318 350.7 731.985 352.333 724.851 352.333C720.118 352.333 715.818 351.533 711.951 349.933C708.085 348.333 706.151 346.133 706.151 343.333C706.151 341.467 706.585 339.5 707.451 337.433C708.385 335.367 709.318 334 710.251 333.333Z" fill="#BB2649"/>
<g filter="url(#filter0_d_11_2)">
<path d="M61.9298 178.035L35.2631 141.544L61.9298 343.649H133.509L199.474 288.1M373.509 141.544L199.474 288.1M199.474 288.1L112.456 222.947M199.474 343.649H181.93L391.053 164L373.509 343.649H345.439" stroke="#BB2649" stroke-width="12" stroke-linecap="round" stroke-linejoin="round"/>
<path d="M219.825 84L150.118 197.444C149.299 198.777 150.258 200.491 151.822 200.491H259.983C261.845 200.491 262.697 202.814 261.275 204.017L196.667 258.737" stroke="#BB2649" stroke-width="12" stroke-linecap="round" stroke-linejoin="round"/>
<circle cx="29.6491" cy="84" r="19.6491" fill="#BB2649"/>
<circle cx="390.351" cy="84" r="19.6491" fill="#BB2649"/>
<circle cx="213.509" cy="23.6491" r="19.6491" fill="#BB2649"/>
</g>
<defs>
<filter id="filter0_d_11_2" x="10" y="0" width="415" height="359.649" filterUnits="userSpaceOnUse" color-interpolation-filters="sRGB">
<feFlood flood-opacity="0" result="BackgroundImageFix"/>
<feColorMatrix in="SourceAlpha" type="matrix" values="0 0 0 0 0 0 0 0 0 0 0 0 0 0 0 0 0 0 127 0" result="hardAlpha"/>
<feOffset dx="8" dy="3"/>
<feGaussianBlur stdDeviation="3.5"/>
<feComposite in2="hardAlpha" operator="out"/>
<feColorMatrix type="matrix" values="0 0 0 0 0 0 0 0 0 0 0 0 0 0 0 0 0 0 0.25 0"/>
<feBlend mode="normal" in2="BackgroundImageFix" result="effect1_dropShadow_11_2"/>
<feBlend mode="normal" in="SourceGraphic" in2="effect1_dropShadow_11_2" result="shape"/>
</filter>
</defs>
</svg>
