<?xml version="1.0" encoding="UTF-8" standalone="no"?>
<!DOCTYPE svg PUBLIC "-//W3C//DTD SVG 1.1//EN" "http://www.w3.org/Graphics/SVG/1.1/DTD/svg11.dtd">
<!-- Created with Vectornator (http://vectornator.io/) -->
<svg height="100%" stroke-miterlimit="10" style="fill-rule:nonzero;clip-rule:evenodd;stroke-linecap:round;stroke-linejoin:round;" version="1.1" viewBox="0 0 420 420" width="100%" xml:space="preserve" xmlns="http://www.w3.org/2000/svg" xmlns:vectornator="http://vectornator.io" xmlns:xlink="http://www.w3.org/1999/xlink">
<defs/>
<clipPath id="ArtboardFrame">
<rect height="420" width="420" x="0" y="0"/>
</clipPath>
<g clip-path="url(#ArtboardFrame)" id="Untitled" vectornator:layerName="Untitled">
<path d="M559.39 7.49699L979.39 7.49699L979.39 7.49699L979.39 427.497L979.39 427.497L559.39 427.497L559.39 427.497L559.39 403.966L559.39 7.49699L559.39 7.49699Z" fill="#f5f5f5" fill-rule="nonzero" opacity="0" stroke="none"/>
<g opacity="1">
<clipPath id="ClipPath">
<path d="M-0.140525 0.0983672L419.859 0.0983672L419.859 0.0983672L419.859 420.098L419.859 420.098L-0.140525 420.098L-0.140525 420.098L-0.140525 0.0983672L-0.140525 0.0983672Z"/>
</clipPath>
<g clip-path="url(#ClipPath)">
<path d="M471.938 21.1419L891.938 21.1419L891.938 21.1419L891.938 441.142L891.938 441.142L471.938 441.142L471.938 441.142L471.938 21.1419L471.938 21.1419Z" fill="#000000" fill-opacity="0" fill-rule="nonzero" opacity="1" stroke="none"/>
<path d="M62.8518 378.607C63.3051 378.607 63.5318 379.793 63.5318 382.167C63.5318 384.513 63.3051 385.687 62.8518 385.687L55.5318 385.687L55.5318 390.247L60.4118 390.247C60.8651 390.247 61.0918 391.287 61.0918 393.367C61.0918 395.42 60.8785 396.447 60.4518 396.447L55.5318 396.447L55.5318 406.087C55.5318 406.46 55.0251 406.7 54.0118 406.807C53.0251 406.94 52.1985 407.007 51.5318 407.007L49.6518 406.927C48.3451 406.767 47.6918 406.5 47.6918 406.127L47.6918 379.647C47.6918 379.22 47.7718 378.94 47.9318 378.807C48.1185 378.673 48.3851 378.607 48.7318 378.607L62.8518 378.607ZM78.7034 406.567C78.7034 406.753 77.49 406.847 75.0634 406.847C72.6367 406.793 71.4234 406.687 71.4234 406.527L71.4234 393.247L70.3434 393.247C69.9167 393.247 69.57 392.993 69.3034 392.487C69.0634 391.953 68.9434 391.3 68.9434 390.527C68.9434 387.647 69.7967 386.207 71.5034 386.207C72.7034 386.207 73.7034 386.58 74.5034 387.327C75.3034 388.047 75.7034 388.873 75.7034 389.807C76.2634 388.713 77.01 387.847 77.9434 387.207C78.9034 386.54 79.8767 386.207 80.8634 386.207C82.41 386.207 83.3434 386.607 83.6634 387.407C83.7434 387.62 83.7834 387.94 83.7834 388.367C83.7834 388.767 83.65 389.5 83.3834 390.567C83.1434 391.633 82.89 392.407 82.6234 392.887C82.3567 393.367 82.1967 393.607 82.1434 393.607C82.09 393.607 81.8367 393.513 81.3834 393.327C80.9567 393.113 80.57 393.007 80.2234 393.007C79.21 393.007 78.7034 393.807 78.7034 395.407L78.7034 406.567ZM105.322 405.527C103.642 406.513 101.482 407.007 98.8427 407.007C96.2027 407.007 93.9761 406.113 92.1627 404.327C90.3494 402.513 89.4427 400.02 89.4427 396.847C89.4427 393.647 90.3094 391.073 92.0427 389.127C93.8027 387.18 96.0161 386.207 98.6827 386.207C101.349 386.207 103.402 386.887 104.842 388.247C106.309 389.607 107.042 391.26 107.042 393.207C107.042 397.527 104.562 399.687 99.6027 399.687L96.8427 399.687C96.8427 400.487 97.0561 401.047 97.4827 401.367C97.9361 401.66 98.5894 401.807 99.4427 401.807C101.309 401.807 103.082 401.38 104.762 400.527C104.789 400.5 104.909 400.687 105.122 401.087C105.762 402.233 106.082 403.207 106.082 404.007C106.082 404.78 105.829 405.287 105.322 405.527ZM100.322 393.967C100.322 392.847 99.7761 392.287 98.6827 392.287C98.1761 392.287 97.7361 392.447 97.3627 392.767C97.0161 393.06 96.8427 393.5 96.8427 394.087L96.8427 395.327L99.0027 395.327C99.8825 395.327 100.322 394.873 100.322 393.967ZM129.175 405.527C127.495 406.513 125.335 407.007 122.695 407.007C120.055 407.007 117.829 406.113 116.015 404.327C114.202 402.513 113.295 400.02 113.295 396.847C113.295 393.647 114.162 391.073 115.895 389.127C117.655 387.18 119.869 386.207 122.535 386.207C125.202 386.207 127.255 386.887 128.695 388.247C130.162 389.607 130.895 391.26 130.895 393.207C130.895 397.527 128.415 399.687 123.455 399.687L120.695 399.687C120.695 400.487 120.909 401.047 121.335 401.367C121.789 401.66 122.442 401.807 123.295 401.807C125.162 401.807 126.935 401.38 128.615 400.527C128.642 400.5 128.762 400.687 128.975 401.087C129.615 402.233 129.935 403.207 129.935 404.007C129.935 404.78 129.682 405.287 129.175 405.527ZM124.175 393.967C124.175 392.847 123.629 392.287 122.535 392.287C122.029 392.287 121.589 392.447 121.215 392.767C120.869 393.06 120.695 393.5 120.695 394.087L120.695 395.327L122.855 395.327C123.735 395.327 124.175 394.873 124.175 393.967ZM151.088 396.847C151.594 397.247 152.461 397.793 153.688 398.487C154.941 399.18 156.128 399.527 157.248 399.527C158.394 399.527 158.968 399.087 158.968 398.207C158.968 397.807 158.808 397.46 158.488 397.167C158.168 396.847 157.581 396.487 156.728 396.087C155.874 395.687 155.234 395.38 154.808 395.167C154.381 394.927 153.808 394.553 153.088 394.047C152.394 393.513 151.861 392.967 151.488 392.407C150.421 390.887 149.888 388.953 149.888 386.607C149.888 384.26 150.754 382.287 152.488 380.687C154.248 379.06 156.541 378.247 159.368 378.247C161.288 378.247 163.061 378.46 164.688 378.887C166.314 379.287 167.154 379.82 167.208 380.487C167.208 380.567 167.208 380.647 167.208 380.727C167.208 381.66 166.914 382.847 166.328 384.287C165.741 385.7 165.328 386.487 165.088 386.647C163.381 385.767 161.848 385.327 160.488 385.327C159.154 385.327 158.488 385.807 158.488 386.767C158.488 387.353 158.981 387.873 159.968 388.327C160.181 388.433 160.488 388.58 160.888 388.767C161.288 388.953 161.741 389.18 162.248 389.447C162.781 389.687 163.341 390.007 163.928 390.407C164.541 390.78 165.194 391.287 165.888 391.927C167.301 393.26 168.008 395.02 168.008 397.207C168.008 400.06 167.221 402.393 165.648 404.207C164.074 406.02 161.648 406.953 158.368 407.007C156.768 407.007 155.314 406.873 154.008 406.607C152.728 406.34 151.608 405.82 150.648 405.047C149.688 404.273 149.208 403.34 149.208 402.247C149.208 401.153 149.408 400.073 149.808 399.007C150.208 397.913 150.634 397.193 151.088 396.847ZM184.098 413.887C184.098 414.073 182.951 414.167 180.658 414.167C178.391 414.167 177.258 414.073 177.258 413.887L177.258 393.287L175.898 393.287C175.258 393.287 174.818 392.7 174.578 391.527C174.498 391.153 174.458 390.673 174.458 390.087C174.458 389.5 174.644 388.807 175.018 388.007C175.551 386.833 176.404 386.247 177.578 386.247C178.351 386.247 179.058 386.433 179.698 386.807C180.364 387.153 180.818 387.487 181.058 387.807C181.324 388.1 181.458 388.273 181.458 388.327C183.244 386.94 185.178 386.247 187.258 386.247C189.338 386.247 191.124 387.06 192.618 388.687C194.111 390.287 194.858 392.78 194.858 396.167C194.858 399.527 194.111 402.14 192.618 404.007C191.124 405.847 189.231 406.767 186.938 406.767C185.898 406.767 184.951 406.713 184.098 406.607L184.098 413.887ZM185.738 393.247C185.284 393.247 184.844 393.393 184.418 393.687L184.418 400.767C184.871 400.82 185.231 400.847 185.498 400.847C185.791 400.847 186.018 400.847 186.178 400.847C187.271 400.74 187.818 399.34 187.818 396.647C187.818 394.38 187.124 393.247 185.738 393.247ZM209.405 406.367C209.405 406.58 208.178 406.687 205.725 406.687C203.298 406.687 202.085 406.593 202.085 406.407L202.085 386.767C202.085 386.58 203.298 386.487 205.725 386.487C208.178 386.487 209.405 386.567 209.405 386.727L209.405 406.367ZM209.405 384.367C209.405 384.553 208.178 384.647 205.725 384.647C203.298 384.647 202.085 384.567 202.085 384.407L202.085 378.647C202.085 378.38 203.298 378.247 205.725 378.247C208.178 378.247 209.405 378.327 209.405 378.487L209.405 384.367ZM226.183 406.567C226.183 406.753 224.969 406.847 222.543 406.847C220.116 406.793 218.903 406.687 218.903 406.527L218.903 393.247L217.823 393.247C217.396 393.247 217.049 392.993 216.783 392.487C216.543 391.953 216.423 391.3 216.423 390.527C216.423 387.647 217.276 386.207 218.983 386.207C220.183 386.207 221.183 386.58 221.983 387.327C222.783 388.047 223.183 388.873 223.183 389.807C223.743 388.713 224.489 387.847 225.423 387.207C226.383 386.54 227.356 386.207 228.343 386.207C229.889 386.207 230.823 386.607 231.143 387.407C231.223 387.62 231.263 387.94 231.263 388.367C231.263 388.767 231.129 389.5 230.863 390.567C230.623 391.633 230.369 392.407 230.103 392.887C229.836 393.367 229.676 393.607 229.623 393.607C229.569 393.607 229.316 393.513 228.863 393.327C228.436 393.113 228.049 393.007 227.703 393.007C226.689 393.007 226.183 393.807 226.183 395.407L226.183 406.567ZM245.002 406.367C245.002 406.58 243.775 406.687 241.322 406.687C238.895 406.687 237.682 406.593 237.682 406.407L237.682 386.767C237.682 386.58 238.895 386.487 241.322 386.487C243.775 386.487 245.002 386.567 245.002 386.727L245.002 406.367ZM245.002 384.367C245.002 384.553 243.775 384.647 241.322 384.647C238.895 384.647 237.682 384.567 237.682 384.407L237.682 378.647C237.682 378.38 238.895 378.247 241.322 378.247C243.775 378.247 245.002 378.327 245.002 378.487L245.002 384.367ZM262.219 406.367C262.219 406.687 261.099 406.847 258.859 406.847C256.193 406.74 254.859 406.567 254.859 406.327L254.859 392.167L252.819 392.167C252.286 392.167 252.019 391.247 252.019 389.407C252.019 388.927 252.059 388.34 252.139 387.647C252.246 386.953 252.446 386.607 252.739 386.607L254.859 386.607L254.859 383.087C254.859 382.553 255.979 382.287 258.219 382.287C260.486 382.287 261.619 382.5 261.619 382.927L261.619 385.487L261.659 386.607L265.059 386.607C265.513 386.607 265.739 387.54 265.739 389.407C265.739 391.273 265.513 392.207 265.059 392.207L262.219 392.207L262.219 406.367ZM296.325 405.967C296.325 406.5 295.005 406.767 292.365 406.767C289.725 406.767 288.405 406.5 288.405 405.967L288.405 385.887L283.605 385.887C283.152 385.887 282.832 385.273 282.645 384.047C282.565 383.46 282.525 382.86 282.525 382.247C282.525 381.633 282.565 381.033 282.645 380.447C282.832 379.22 283.152 378.607 283.605 378.607L301.005 378.607C301.458 378.607 301.778 379.22 301.965 380.447C302.045 381.033 302.085 381.633 302.085 382.247C302.085 382.86 302.045 383.46 301.965 384.047C301.778 385.273 301.458 385.887 301.005 385.887L296.325 385.887L296.325 405.967ZM308.877 404.247C307.224 402.407 306.397 399.86 306.397 396.607C306.397 393.353 307.224 390.807 308.877 388.967C310.557 387.127 312.81 386.207 315.637 386.207C318.464 386.207 320.704 387.127 322.357 388.967C324.01 390.807 324.837 393.353 324.837 396.607C324.837 399.86 324.01 402.407 322.357 404.247C320.704 406.087 318.464 407.007 315.637 407.007C312.81 407.007 310.557 406.087 308.877 404.247ZM315.637 392.887C314.144 392.887 313.397 394.113 313.397 396.567C313.397 399.02 314.144 400.247 315.637 400.247C317.157 400.247 317.917 399.02 317.917 396.567C317.917 394.113 317.157 392.887 315.637 392.887ZM331.865 386.847C331.865 386.553 333.011 386.407 335.305 386.407C337.598 386.407 338.745 386.553 338.745 386.847L338.745 398.527C338.745 399.86 339.171 400.527 340.025 400.527C340.665 400.527 341.385 400.247 342.185 399.687L342.185 386.847C342.185 386.58 343.318 386.447 345.585 386.447C347.851 386.447 348.985 386.58 348.985 386.847L348.985 399.967L350.025 399.967C350.931 399.967 351.385 400.833 351.385 402.567C351.385 403.447 351.198 404.34 350.825 405.247C350.291 406.42 349.571 407.007 348.665 407.007C346.878 407.007 345.558 406.273 344.705 404.807L344.665 404.847C343.038 406.287 341.291 407.007 339.425 407.007C336.838 407.007 334.931 406.367 333.705 405.087C332.478 403.78 331.865 401.633 331.865 398.647L331.865 386.847ZM366.983 406.567C366.983 406.753 365.769 406.847 363.343 406.847C360.916 406.793 359.703 406.687 359.703 406.527L359.703 393.247L358.623 393.247C358.196 393.247 357.849 392.993 357.583 392.487C357.343 391.953 357.223 391.3 357.223 390.527C357.223 387.647 358.076 386.207 359.783 386.207C360.983 386.207 361.983 386.58 362.783 387.327C363.583 388.047 363.983 388.873 363.983 389.807C364.543 388.713 365.289 387.847 366.223 387.207C367.183 386.54 368.156 386.207 369.143 386.207C370.689 386.207 371.623 386.607 371.943 387.407C372.023 387.62 372.063 387.94 372.063 388.367C372.063 388.767 371.929 389.5 371.663 390.567C371.423 391.633 371.169 392.407 370.903 392.887C370.636 393.367 370.476 393.607 370.423 393.607C370.369 393.607 370.116 393.513 369.663 393.327C369.236 393.113 368.849 393.007 368.503 393.007C367.489 393.007 366.983 393.807 366.983 395.407L366.983 406.567ZM379.322 399.407C381.482 400.713 383.189 401.367 384.442 401.367C385.242 401.367 385.642 401.087 385.642 400.527C385.642 400.127 384.949 399.607 383.562 398.967C380.229 397.607 378.562 395.38 378.562 392.287C378.562 390.313 379.282 388.807 380.722 387.767C382.162 386.727 383.882 386.207 385.882 386.207C387.909 386.207 389.615 386.42 391.002 386.847C392.415 387.273 393.122 387.833 393.122 388.527C393.122 389.113 392.829 389.887 392.242 390.847C391.682 391.807 391.295 392.327 391.082 392.407C389.935 391.767 388.695 391.447 387.362 391.447C386.642 391.447 386.282 391.7 386.282 392.207C386.282 392.527 386.415 392.807 386.682 393.047C386.975 393.26 387.495 393.54 388.242 393.887C388.989 394.207 389.602 394.5 390.082 394.767C390.589 395.033 391.149 395.407 391.762 395.887C393.042 396.9 393.682 398.22 393.682 399.847C393.682 401.98 392.975 403.713 391.562 405.047C390.149 406.353 388.015 407.007 385.162 407.007C383.269 407.007 381.549 406.687 380.002 406.047C378.455 405.407 377.682 404.527 377.682 403.407C377.682 402.66 377.855 401.873 378.202 401.047C378.575 400.22 378.949 399.673 379.322 399.407Z" fill="#bb2649" fill-rule="nonzero" opacity="1" stroke="none"/>
<g opacity="1">
<path d="M61.7893 178.133L35.1226 141.642L61.7893 343.747L133.368 343.747L199.333 288.198M373.368 141.642L199.333 288.198M199.333 288.198L112.315 223.045M199.333 343.747L181.789 343.747L390.912 164.098L373.368 343.747L345.298 343.747" fill="none" opacity="1" stroke="#bb2649" stroke-linecap="round" stroke-linejoin="round" stroke-width="12"/>
<path d="M219.684 84.0984L149.977 197.542C149.158 198.875 150.117 200.589 151.681 200.589L259.842 200.589C261.704 200.589 262.556 202.912 261.134 204.115L196.526 258.835" fill="none" opacity="1" stroke="#bb2649" stroke-linecap="round" stroke-linejoin="round" stroke-width="12"/>
<path d="M9.85948 84.0984C9.85948 73.2465 18.6567 64.4493 29.5086 64.4493C40.3605 64.4493 49.1577 73.2465 49.1577 84.0984C49.1577 94.9503 40.3605 103.747 29.5086 103.747C18.6567 103.747 9.85948 94.9503 9.85948 84.0984Z" fill="#bb2649" fill-rule="nonzero" opacity="1" stroke="none"/>
<path d="M370.561 84.0984C370.561 73.2465 379.358 64.4493 390.21 64.4493C401.062 64.4493 409.859 73.2465 409.859 84.0984C409.859 94.9503 401.062 103.747 390.21 103.747C379.358 103.747 370.561 94.9503 370.561 84.0984Z" fill="#bb2649" fill-rule="nonzero" opacity="1" stroke="none"/>
<path d="M193.719 23.7475C193.719 12.8956 202.516 4.09837 213.368 4.09837C224.22 4.09837 233.017 12.8956 233.017 23.7475C233.017 34.5994 224.22 43.3966 213.368 43.3966C202.516 43.3966 193.719 34.5994 193.719 23.7475Z" fill="#bb2649" fill-rule="nonzero" opacity="1" stroke="none"/>
</g>
</g>
</g>
</g>
</svg>
